<svg xmlns="http://www.w3.org/2000/svg" version="1.1" xmlns:xlink="http://www.w3.org/1999/xlink" xmlns:svgjs="http://svgjs.dev/svgjs" width="1000" height="537" viewBox="0 0 1000 537"><g transform="matrix(1,0,0,1,-0.6060442342084684,0.06958310251610555)"><svg viewBox="0 0 396 213" data-background-color="#398378" preserveAspectRatio="xMidYMid meet" height="537" width="1000" xmlns="http://www.w3.org/2000/svg" xmlns:xlink="http://www.w3.org/1999/xlink"><g id="tight-bounds" transform="matrix(1,0,0,1,0.23999351674655145,-0.027600001556663756)"><svg viewBox="0 0 395.52 213.05519936638154" height="213.05519936638154" width="395.52"><g><svg viewBox="0 0 395.52 213.05519936638154" height="213.05519936638154" width="395.52"><g transform="matrix(1,0,0,1,0,155.84259975805065)"><svg viewBox="0 0 395.52 57.2125996083309" height="57.2125996083309" width="395.52"><g id="textblocktransform"><svg viewBox="0 0 395.52 57.2125996083309" height="57.2125996083309" width="395.52" id="textblock"><g><svg viewBox="0 0 395.52 30.85774240555991" height="30.85774240555991" width="395.52"><g transform="matrix(1,0,0,1,0,0)"><svg width="395.52" viewBox="0.75 -34.400001525878906 446.010009765625 34.80000305175781" height="30.85774240555991" data-palette-color="#31c48d"><path d="M22.5-33.7L22.5-30.85 13.15-30.85 13.15 0 10.05 0 10.05-30.85 0.75-30.85 0.75-33.7 22.5-33.7ZM33.45-14.2L33.45-14.2 32.7-12.1 45.75-12.1 45-14.25 39.3-31.1Q38.65-29.1 33.45-14.2ZM31.75-9.35L28.5 0 25.15 0 37.05-33.7 41.55-33.7 53.2 0 49.85 0 46.65-9.35 31.75-9.35ZM69.84-14.35L60.8 0 57.2 0 68.09-17 57.84-33.7 61.45-33.7 69.8-19.8 78.14-33.7 81.75-33.7 71.55-17 83 0 79.39 0 69.84-14.35ZM119.44-2.85L119.44 0 101.19 0 101.19-33.7 119.14-33.7 119.14-30.85 104.29-30.85 104.29-18.25 117.39-18.25 117.39-15.4 104.29-15.4 104.29-2.85 119.44-2.85ZM135.54 0L135.54 0 125.69 0 125.69-33.7 135.29-33.7Q142.69-33.7 147.44-29.1 152.19-24.5 152.19-17.05L152.19-17.05Q152.19-12.5 150.44-8.72 148.69-4.95 144.81-2.48 140.94 0 135.54 0ZM135.29-30.85L135.29-30.85 128.79-30.85 128.79-2.85 135.54-2.85Q138.99-2.85 141.64-4.05 144.29-5.25 145.84-7.3 147.39-9.35 148.16-11.8 148.94-14.25 148.94-17.05L148.94-17.05Q148.94-22.8 145.11-26.83 141.29-30.85 135.29-30.85ZM183.99-18.55L183.99-2.5Q180.03 0.4 173.99 0.4L173.99 0.4Q166.28 0.4 161.61-4.23 156.94-8.85 156.94-16.9L156.94-16.9Q156.94-24.5 161.51-29.4 166.09-34.3 173.09-34.3L173.09-34.3Q179.03-34.3 182.88-31.95L182.88-31.95 182.88-28.5Q179.03-31.2 173.49-31.2L173.49-31.2Q167.59-31.2 163.86-27.28 160.13-23.35 160.13-16.9L160.13-16.9Q160.13-10.25 163.84-6.48 167.53-2.7 174.03-2.7L174.03-2.7Q177.88-2.7 180.88-4.25L180.88-4.25 180.88-15.8 172.94-15.8 172.94-18.55 183.99-18.55ZM209.73-2.85L209.73 0 191.48 0 191.48-33.7 209.43-33.7 209.43-30.85 194.58-30.85 194.58-18.25 207.68-18.25 207.68-15.4 194.58-15.4 194.58-2.85 209.73-2.85ZM234.28-14.2L234.28-14.2 233.53-12.1 246.58-12.1 245.83-14.25 240.13-31.1Q239.48-29.1 234.28-14.2ZM232.58-9.35L229.33 0 225.98 0 237.88-33.7 242.38-33.7 254.03 0 250.68 0 247.48-9.35 232.58-9.35ZM269.78 0L269.78 0 259.93 0 259.93-33.7 269.53-33.7Q276.93-33.7 281.68-29.1 286.43-24.5 286.43-17.05L286.43-17.05Q286.43-12.5 284.68-8.72 282.93-4.95 279.05-2.48 275.18 0 269.78 0ZM269.53-30.85L269.53-30.85 263.03-30.85 263.03-2.85 269.78-2.85Q273.23-2.85 275.88-4.05 278.53-5.25 280.07-7.3 281.63-9.35 282.4-11.8 283.18-14.25 283.18-17.05L283.18-17.05Q283.18-22.8 279.35-26.83 275.53-30.85 269.53-30.85ZM318.22-33.7L306.37 0 302.12 0 290.67-33.7 294.02-33.7 298.47-20.35 304.27-2.75 310.27-20.35 314.87-33.7 318.22-33.7ZM327.57-33.7L327.57 0 324.47 0 324.47-33.7 327.57-33.7ZM354.92-8.7L354.92-8.7Q354.92-4.3 351.97-1.98 349.02 0.35 344.42 0.35L344.42 0.35Q339.22 0.35 335.57-1.85L335.57-1.85 335.57-5.3Q337.07-4.15 339.44-3.4 341.82-2.65 344.27-2.65L344.27-2.65Q347.82-2.65 349.79-4.2 351.77-5.75 351.77-8.65L351.77-8.65Q351.77-10.85 350.27-12.23 348.77-13.6 345.92-14.85L345.92-14.85Q345.52-15.05 344.17-15.63 342.82-16.2 342.27-16.45 341.72-16.7 340.57-17.3 339.42-17.9 338.89-18.35 338.37-18.8 337.57-19.55 336.77-20.3 336.42-21.05 336.07-21.8 335.77-22.83 335.47-23.85 335.47-25L335.47-25Q335.47-29.25 338.52-31.63 341.57-34 345.97-34L345.97-34Q350.17-34 352.97-32.5L352.97-32.5 352.97-29.05Q351.77-29.85 349.82-30.4 347.87-30.95 346.02-30.95L346.02-30.95Q342.67-30.95 340.67-29.38 338.67-27.8 338.67-25.2L338.67-25.2Q338.67-23.85 339.19-22.8 339.72-21.75 340.97-20.88 342.22-20 343.14-19.53 344.07-19.05 345.97-18.25L345.97-18.25Q347.72-17.5 348.62-17.07 349.52-16.65 350.92-15.75 352.32-14.85 353.04-13.98 353.77-13.1 354.34-11.73 354.92-10.35 354.92-8.7ZM390.22-17L390.22-17Q390.22-9 386.27-4.3 382.32 0.4 375.52 0.4L375.52 0.4Q368.82 0.4 364.74-4.35 360.67-9.1 360.67-17L360.67-17Q360.67-24.95 364.64-29.68 368.62-34.4 375.42-34.4L375.42-34.4Q382.42-34.4 386.32-29.73 390.22-25.05 390.22-17ZM363.87-17L363.87-17Q363.87-10.35 367.04-6.48 370.22-2.6 375.52-2.6L375.52-2.6Q381.02-2.6 384.02-6.43 387.02-10.25 387.02-17L387.02-17Q387.02-23.8 383.99-27.6 380.97-31.4 375.42-31.4L375.42-31.4Q370.02-31.4 366.94-27.58 363.87-23.75 363.87-17ZM404.66-30.95L404.66-30.95 399.81-30.95 399.81-16.45 405.26-16.45Q408.96-16.45 410.96-18.5 412.96-20.55 412.96-23.6L412.96-23.6Q412.96-30.95 404.66-30.95ZM404.91-13.7L404.91-13.7 399.81-13.7 399.81 0 396.71 0 396.71-33.7 404.31-33.7Q410.21-33.7 413.14-31.03 416.06-28.35 416.06-23.45L416.06-23.45Q415.96-20.05 414.16-17.6 412.36-15.15 409.06-14.25L409.06-14.25 418.01 0 414.31 0 405.86-13.75Q405.56-13.7 404.91-13.7ZM446.76-33.7L435.26-12.6 435.26 0 432.16 0 432.16-12.6 420.76-33.7 424.31-33.7 426.96-28.75 433.71-15.75Q434.11-16.7 440.56-28.75L440.56-28.75 443.21-33.7 446.76-33.7Z" opacity="1" transform="matrix(1,0,0,1,0,0)" fill="#31c48d" class="undefined-text-0" data-fill-palette-color="primary" id="text-0"></path></svg></g></svg></g><g transform="matrix(1,0,0,1,0,38.14251480169487)"><svg viewBox="0 0 395.52 19.070084806636025" height="19.070084806636025" width="395.52"><g transform="matrix(1,0,0,1,0,0)"><svg width="395.52" viewBox="0 -38.2599983215332 1042.5899658203125 50.269996643066406" height="19.070084806636025" data-palette-color="#adbfb8"><path d="M4.54-35.69L13.99-17.85 23.51-35.69 28-35.69 16.09-13.84 16.09 0 11.89 0 11.89-13.65 0-35.69 4.54-35.69ZM57.92-13.4L57.92-13.4Q57.92-6.86 54.63-3.19 51.33 0.49 45.52 0.49L45.52 0.49Q41.93 0.49 39.15-1.2 36.37-2.88 34.85-6.03 33.34-9.18 33.34-13.4L33.34-13.4Q33.34-19.95 36.61-23.6 39.88-27.25 45.69-27.25L45.69-27.25Q51.31-27.25 54.61-23.51 57.92-19.78 57.92-13.4ZM37.54-13.4L37.54-13.4Q37.54-8.28 39.59-5.59 41.64-2.91 45.62-2.91L45.62-2.91Q49.6-2.91 51.66-5.58 53.72-8.25 53.72-13.4L53.72-13.4Q53.72-18.51 51.66-21.15 49.6-23.8 45.57-23.8L45.57-23.8Q41.59-23.8 39.56-21.19 37.54-18.58 37.54-13.4ZM67.26-26.76L71.36-26.76 71.36-9.4Q71.36-6.13 72.85-4.52 74.34-2.91 77.52-2.91L77.52-2.91Q81.71-2.91 83.66-5.2 85.6-7.5 85.6-12.7L85.6-12.7 85.6-26.76 89.65-26.76 89.65 0 86.3 0 85.72-3.59 85.5-3.59Q84.25-1.61 82.04-0.56 79.84 0.49 77 0.49L77 0.49Q72.12 0.49 69.69-1.83 67.26-4.15 67.26-9.25L67.26-9.25 67.26-26.76ZM112.98-27.25L112.98-27.25Q114.76-27.25 116.18-26.95L116.18-26.95 115.61-23.19Q113.95-23.56 112.68-23.56L112.68-23.56Q109.44-23.56 107.13-20.92 104.82-18.29 104.82-14.36L104.82-14.36 104.82 0 100.77 0 100.77-26.76 104.12-26.76 104.58-21.8 104.77-21.8Q106.26-24.41 108.36-25.83 110.46-27.25 112.98-27.25ZM162.32-13.4L162.32-13.4Q162.32-6.86 159.02-3.19 155.73 0.49 149.92 0.49L149.92 0.49Q146.33 0.49 143.55-1.2 140.76-2.88 139.25-6.03 137.73-9.18 137.73-13.4L137.73-13.4Q137.73-19.95 141.01-23.6 144.28-27.25 150.09-27.25L150.09-27.25Q155.7-27.25 159.01-23.51 162.32-19.78 162.32-13.4ZM141.93-13.4L141.93-13.4Q141.93-8.28 143.98-5.59 146.04-2.91 150.01-2.91L150.01-2.91Q153.99-2.91 156.06-5.58 158.12-8.25 158.12-13.4L158.12-13.4Q158.12-18.51 156.06-21.15 153.99-23.8 149.97-23.8L149.97-23.8Q145.99-23.8 143.96-21.19 141.93-18.58 141.93-13.4ZM194.31 0L190.26 0 190.26-17.31Q190.26-20.58 188.77-22.19 187.28-23.8 184.11-23.8L184.11-23.8Q179.91-23.8 177.96-21.53 176-19.26 176-14.04L176-14.04 176 0 171.95 0 171.95-26.76 175.25-26.76 175.91-23.1 176.1-23.1Q177.35-25.07 179.59-26.16 181.84-27.25 184.6-27.25L184.6-27.25Q189.43-27.25 191.87-24.91 194.31-22.58 194.31-17.46L194.31-17.46 194.31 0ZM216.47 0.49L216.47 0.49Q210.54 0.49 207.11-3.13 203.68-6.74 203.68-13.16L203.68-13.16Q203.68-19.63 206.86-23.44 210.05-27.25 215.42-27.25L215.42-27.25Q220.45-27.25 223.38-23.94 226.31-20.63 226.31-15.21L226.31-15.21 226.31-12.65 207.88-12.65Q208-7.93 210.26-5.49 212.52-3.05 216.62-3.05L216.62-3.05Q220.94-3.05 225.16-4.86L225.16-4.86 225.16-1.25Q223.01-0.32 221.1 0.09 219.18 0.49 216.47 0.49ZM215.37-23.85L215.37-23.85Q212.15-23.85 210.23-21.75 208.32-19.65 207.97-15.94L207.97-15.94 221.96-15.94Q221.96-19.78 220.26-21.81 218.55-23.85 215.37-23.85ZM268.52-7.3L268.52-7.3Q268.52-3.56 265.74-1.54 262.96 0.49 257.93 0.49L257.93 0.49Q252.6 0.49 249.63-1.2L249.63-1.2 249.63-4.96Q251.56-3.98 253.76-3.42 255.97-2.86 258.02-2.86L258.02-2.86Q261.2-2.86 262.91-3.87 264.62-4.88 264.62-6.96L264.62-6.96Q264.62-8.52 263.26-9.63 261.91-10.74 257.98-12.26L257.98-12.26Q254.24-13.65 252.67-14.69 251.09-15.72 250.32-17.04 249.55-18.36 249.55-20.19L249.55-20.19Q249.55-23.46 252.21-25.35 254.88-27.25 259.51-27.25L259.51-27.25Q263.84-27.25 267.96-25.49L267.96-25.49 266.52-22.19Q262.49-23.85 259.22-23.85L259.22-23.85Q256.34-23.85 254.88-22.95 253.41-22.05 253.41-20.46L253.41-20.46Q253.41-19.38 253.96-18.63 254.51-17.87 255.73-17.19 256.95-16.5 260.42-15.21L260.42-15.21Q265.18-13.48 266.85-11.72 268.52-9.96 268.52-7.3ZM286.28-2.86L286.28-2.86Q287.36-2.86 288.36-3.02 289.36-3.17 289.95-3.34L289.95-3.34 289.95-0.24Q289.29 0.07 288.01 0.28 286.72 0.49 285.7 0.49L285.7 0.49Q277.94 0.49 277.94-7.69L277.94-7.69 277.94-23.61 274.1-23.61 274.1-25.56 277.94-27.25 279.64-32.96 281.99-32.96 281.99-26.76 289.75-26.76 289.75-23.61 281.99-23.61 281.99-7.86Q281.99-5.44 283.14-4.15 284.28-2.86 286.28-2.86ZM320.92-13.4L320.92-13.4Q320.92-6.86 317.62-3.19 314.32 0.49 308.51 0.49L308.51 0.49Q304.93 0.49 302.14-1.2 299.36-2.88 297.85-6.03 296.33-9.18 296.33-13.4L296.33-13.4Q296.33-19.95 299.6-23.6 302.87-27.25 308.69-27.25L308.69-27.25Q314.3-27.25 317.61-23.51 320.92-19.78 320.92-13.4ZM300.53-13.4L300.53-13.4Q300.53-8.28 302.58-5.59 304.63-2.91 308.61-2.91L308.61-2.91Q312.59-2.91 314.65-5.58 316.72-8.25 316.72-13.4L316.72-13.4Q316.72-18.51 314.65-21.15 312.59-23.8 308.56-23.8L308.56-23.8Q304.58-23.8 302.56-21.19 300.53-18.58 300.53-13.4ZM343 0.49L343 0.49Q340.39 0.49 338.23-0.48 336.07-1.44 334.6-3.44L334.6-3.44 334.31-3.44Q334.6-1.1 334.6 1L334.6 1 334.6 12.01 330.55 12.01 330.55-26.76 333.84-26.76 334.41-23.1 334.6-23.1Q336.16-25.29 338.24-26.27 340.31-27.25 343-27.25L343-27.25Q348.32-27.25 351.21-23.61 354.11-19.97 354.11-13.4L354.11-13.4Q354.11-6.81 351.17-3.16 348.22 0.49 343 0.49ZM342.41-23.8L342.41-23.8Q338.31-23.8 336.48-21.53 334.65-19.26 334.6-14.31L334.6-14.31 334.6-13.4Q334.6-7.76 336.48-5.33 338.36-2.91 342.51-2.91L342.51-2.91Q345.98-2.91 347.94-5.71 349.91-8.52 349.91-13.45L349.91-13.45Q349.91-18.46 347.94-21.13 345.98-23.8 342.41-23.8ZM396.49-7.3L396.49-7.3Q396.49-3.56 393.71-1.54 390.93 0.49 385.9 0.49L385.9 0.49Q380.57 0.49 377.6-1.2L377.6-1.2 377.6-4.96Q379.52-3.98 381.73-3.42 383.94-2.86 385.99-2.86L385.99-2.86Q389.17-2.86 390.88-3.87 392.59-4.88 392.59-6.96L392.59-6.96Q392.59-8.52 391.23-9.63 389.88-10.74 385.94-12.26L385.94-12.26Q382.21-13.65 380.63-14.69 379.06-15.72 378.29-17.04 377.52-18.36 377.52-20.19L377.52-20.19Q377.52-23.46 380.18-25.35 382.84-27.25 387.48-27.25L387.48-27.25Q391.8-27.25 395.93-25.49L395.93-25.49 394.49-22.19Q390.46-23.85 387.19-23.85L387.19-23.85Q384.31-23.85 382.84-22.95 381.38-22.05 381.38-20.46L381.38-20.46Q381.38-19.38 381.93-18.63 382.48-17.87 383.7-17.19 384.92-16.5 388.39-15.21L388.39-15.21Q393.15-13.48 394.82-11.72 396.49-9.96 396.49-7.3ZM427.97 0L423.92 0 423.92-17.31Q423.92-20.58 422.43-22.19 420.94-23.8 417.77-23.8L417.77-23.8Q413.55-23.8 411.6-21.51 409.66-19.21 409.66-13.99L409.66-13.99 409.66 0 405.61 0 405.61-37.99 409.66-37.99 409.66-26.49Q409.66-24.41 409.47-23.05L409.47-23.05 409.71-23.05Q410.91-24.98 413.12-26.09 415.33-27.2 418.16-27.2L418.16-27.2Q423.07-27.2 425.52-24.87 427.97-22.53 427.97-17.46L427.97-17.46 427.97 0ZM461.92-13.4L461.92-13.4Q461.92-6.86 458.63-3.19 455.33 0.49 449.52 0.49L449.52 0.49Q445.93 0.49 443.15-1.2 440.37-2.88 438.85-6.03 437.34-9.18 437.34-13.4L437.34-13.4Q437.34-19.95 440.61-23.6 443.88-27.25 449.69-27.25L449.69-27.25Q455.31-27.25 458.61-23.51 461.92-19.78 461.92-13.4ZM441.54-13.4L441.54-13.4Q441.54-8.28 443.59-5.59 445.64-2.91 449.62-2.91L449.62-2.91Q453.6-2.91 455.66-5.58 457.72-8.25 457.72-13.4L457.72-13.4Q457.72-18.51 455.66-21.15 453.6-23.8 449.57-23.8L449.57-23.8Q445.59-23.8 443.56-21.19 441.54-18.58 441.54-13.4ZM484.01 0.49L484.01 0.49Q481.39 0.49 479.23-0.48 477.07-1.44 475.61-3.44L475.61-3.44 475.31-3.44Q475.61-1.1 475.61 1L475.61 1 475.61 12.01 471.55 12.01 471.55-26.76 474.85-26.76 475.41-23.1 475.61-23.1Q477.17-25.29 479.24-26.27 481.32-27.25 484.01-27.25L484.01-27.25Q489.33-27.25 492.22-23.61 495.11-19.97 495.11-13.4L495.11-13.4Q495.11-6.81 492.17-3.16 489.23 0.49 484.01 0.49ZM483.42-23.8L483.42-23.8Q479.32-23.8 477.49-21.53 475.66-19.26 475.61-14.31L475.61-14.31 475.61-13.4Q475.61-7.76 477.49-5.33 479.37-2.91 483.52-2.91L483.52-2.91Q486.98-2.91 488.95-5.71 490.91-8.52 490.91-13.45L490.91-13.45Q490.91-18.46 488.95-21.13 486.98-23.8 483.42-23.8ZM532.3-26.76L532.3-23.61 525.49-23.61 525.49 0 521.43 0 521.43-23.61 516.65-23.61 516.65-25.44 521.43-26.9 521.43-28.39Q521.43-38.26 530.05-38.26L530.05-38.26Q532.18-38.26 535.03-37.4L535.03-37.4 533.98-34.16Q531.64-34.91 529.98-34.91L529.98-34.91Q527.68-34.91 526.58-33.39 525.49-31.86 525.49-28.49L525.49-28.49 525.49-26.76 532.3-26.76ZM562.8-13.4L562.8-13.4Q562.8-6.86 559.51-3.19 556.21 0.49 550.4 0.49L550.4 0.49Q546.81 0.49 544.03-1.2 541.25-2.88 539.73-6.03 538.22-9.18 538.22-13.4L538.22-13.4Q538.22-19.95 541.49-23.6 544.76-27.25 550.57-27.25L550.57-27.25Q556.19-27.25 559.5-23.51 562.8-19.78 562.8-13.4ZM542.42-13.4L542.42-13.4Q542.42-8.28 544.47-5.59 546.52-2.91 550.5-2.91L550.5-2.91Q554.48-2.91 556.54-5.58 558.6-8.25 558.6-13.4L558.6-13.4Q558.6-18.51 556.54-21.15 554.48-23.8 550.45-23.8L550.45-23.8Q546.47-23.8 544.44-21.19 542.42-18.58 542.42-13.4ZM584.64-27.25L584.64-27.25Q586.42-27.25 587.84-26.95L587.84-26.95 587.28-23.19Q585.62-23.56 584.35-23.56L584.35-23.56Q581.1-23.56 578.8-20.92 576.49-18.29 576.49-14.36L576.49-14.36 576.49 0 572.44 0 572.44-26.76 575.78-26.76 576.24-21.8 576.44-21.8Q577.93-24.41 580.03-25.83 582.13-27.25 584.64-27.25ZM634.3-35.69L638.45-35.69 638.45-12.6Q638.45-6.49 634.77-3 631.08 0.49 624.63 0.49L624.63 0.49Q618.19 0.49 614.66-3.03 611.13-6.54 611.13-12.7L611.13-12.7 611.13-35.69 615.28-35.69 615.28-12.4Q615.28-7.93 617.72-5.54 620.17-3.15 624.9-3.15L624.9-3.15Q629.42-3.15 631.86-5.55 634.3-7.96 634.3-12.45L634.3-12.45 634.3-35.69ZM661.32-20.19L676.21 0 671.33 0 658.31-17.31 654.58-13.99 654.58 0 650.43 0 650.43-35.69 654.58-35.69 654.58-17.99 670.76-35.69 675.67-35.69 661.32-20.19ZM707.19-2.86L707.19-2.86Q708.27-2.86 709.27-3.02 710.27-3.17 710.85-3.34L710.85-3.34 710.85-0.24Q710.19 0.07 708.91 0.28 707.63 0.49 706.61 0.49L706.61 0.49Q698.84 0.49 698.84-7.69L698.84-7.69 698.84-23.61 695.01-23.61 695.01-25.56 698.84-27.25 700.55-32.96 702.89-32.96 702.89-26.76 710.66-26.76 710.66-23.61 702.89-23.61 702.89-7.86Q702.89-5.44 704.04-4.15 705.19-2.86 707.19-2.86ZM738.19 0L735.18 0 734.38-3.81 734.18-3.81Q732.18-1.29 730.19-0.4 728.2 0.49 725.22 0.49L725.22 0.49Q721.24 0.49 718.98-1.56 716.73-3.61 716.73-7.4L716.73-7.4Q716.73-15.5 729.69-15.89L729.69-15.89 734.23-16.04 734.23-17.7Q734.23-20.85 732.88-22.35 731.52-23.85 728.54-23.85L728.54-23.85Q725.2-23.85 720.97-21.8L720.97-21.8 719.73-24.9Q721.71-25.98 724.06-26.59 726.42-27.2 728.79-27.2L728.79-27.2Q733.57-27.2 735.88-25.07 738.19-22.95 738.19-18.26L738.19-18.26 738.19 0ZM726.03-2.86L726.03-2.86Q729.81-2.86 731.97-4.93 734.13-7.01 734.13-10.74L734.13-10.74 734.13-13.16 730.08-12.99Q725.25-12.82 723.11-11.49 720.97-10.16 720.97-7.35L720.97-7.35Q720.97-5.15 722.3-4 723.64-2.86 726.03-2.86ZM745.72 0L755.51-13.7 746.21-26.76 750.82-26.76 757.88-16.5 764.91-26.76 769.47-26.76 760.17-13.7 769.96 0 765.37 0 757.88-10.84 750.31 0 745.72 0ZM797.35-26.76L797.35 0 793.3 0 793.3-26.76 797.35-26.76ZM792.96-34.01L792.96-34.01Q792.96-35.4 793.64-36.05 794.33-36.69 795.35-36.69L795.35-36.69Q796.33-36.69 797.04-36.04 797.75-35.38 797.75-34.01L797.75-34.01Q797.75-32.64 797.04-31.97 796.33-31.3 795.35-31.3L795.35-31.3Q794.33-31.3 793.64-31.97 792.96-32.64 792.96-34.01ZM830.84 0L826.79 0 826.79-17.31Q826.79-20.58 825.3-22.19 823.81-23.8 820.63-23.8L820.63-23.8Q816.44-23.8 814.48-21.53 812.53-19.26 812.53-14.04L812.53-14.04 812.53 0 808.48 0 808.48-26.76 811.77-26.76 812.43-23.1 812.63-23.1Q813.87-25.07 816.12-26.16 818.36-27.25 821.12-27.25L821.12-27.25Q825.96-27.25 828.4-24.91 830.84-22.58 830.84-17.46L830.84-17.46 830.84 0ZM852.39 0.49L852.39 0.49Q846.57 0.49 843.39-3.09 840.2-6.67 840.2-13.21L840.2-13.21Q840.2-19.92 843.44-23.58 846.67-27.25 852.65-27.25L852.65-27.25Q854.58-27.25 856.51-26.83 858.44-26.42 859.54-25.85L859.54-25.85 858.29-22.41Q856.95-22.95 855.36-23.3 853.78-23.66 852.56-23.66L852.56-23.66Q844.4-23.66 844.4-13.26L844.4-13.26Q844.4-8.33 846.39-5.69 848.38-3.05 852.29-3.05L852.29-3.05Q855.63-3.05 859.15-4.49L859.15-4.49 859.15-0.9Q856.46 0.49 852.39 0.49ZM879.33 0.49L879.33 0.49Q873.39 0.49 869.96-3.13 866.53-6.74 866.53-13.16L866.53-13.16Q866.53-19.63 869.72-23.44 872.91-27.25 878.28-27.25L878.28-27.25Q883.31-27.25 886.24-23.94 889.17-20.63 889.17-15.21L889.17-15.21 889.17-12.65 870.73-12.65Q870.86-7.93 873.11-5.49 875.37-3.05 879.47-3.05L879.47-3.05Q883.79-3.05 888.02-4.86L888.02-4.86 888.02-1.25Q885.87-0.32 883.95 0.09 882.04 0.49 879.33 0.49ZM878.23-23.85L878.23-23.85Q875.01-23.85 873.09-21.75 871.17-19.65 870.83-15.94L870.83-15.94 884.82-15.94Q884.82-19.78 883.11-21.81 881.4-23.85 878.23-23.85ZM920.97 0L916.91 0 916.91-17.31Q916.91-20.58 915.42-22.19 913.93-23.8 910.76-23.8L910.76-23.8Q906.56-23.8 904.61-21.53 902.65-19.26 902.65-14.04L902.65-14.04 902.65 0 898.6 0 898.6-26.76 901.9-26.76 902.56-23.1 902.75-23.1Q904-25.07 906.24-26.16 908.49-27.25 911.25-27.25L911.25-27.25Q916.08-27.25 918.52-24.91 920.97-22.58 920.97-17.46L920.97-17.46 920.97 0ZM940.46-2.86L940.46-2.86Q941.53-2.86 942.54-3.02 943.54-3.17 944.12-3.34L944.12-3.34 944.12-0.24Q943.46 0.07 942.18 0.28 940.9 0.49 939.87 0.49L939.87 0.49Q932.11 0.49 932.11-7.69L932.11-7.69 932.11-23.61 928.28-23.61 928.28-25.56 932.11-27.25 933.82-32.96 936.16-32.96 936.16-26.76 943.93-26.76 943.93-23.61 936.16-23.61 936.16-7.86Q936.16-5.44 937.31-4.15 938.46-2.86 940.46-2.86ZM956.05-26.76L956.05 0 952 0 952-26.76 956.05-26.76ZM951.66-34.01L951.66-34.01Q951.66-35.4 952.34-36.05 953.02-36.69 954.05-36.69L954.05-36.69Q955.02-36.69 955.73-36.04 956.44-35.38 956.44-34.01L956.44-34.01Q956.44-32.64 955.73-31.97 955.02-31.3 954.05-31.3L954.05-31.3Q953.02-31.3 952.34-31.97 951.66-32.64 951.66-34.01ZM977.77 0L973.03 0 962.87-26.76 967.22-26.76 972.98-10.89Q974.93-5.32 975.28-3.66L975.28-3.66 975.47-3.66Q975.74-4.96 977.17-9.02 978.6-13.09 983.58-26.76L983.58-26.76 987.92-26.76 977.77 0ZM1006.05 0.49L1006.05 0.49Q1000.12 0.49 996.69-3.13 993.26-6.74 993.26-13.16L993.26-13.16Q993.26-19.63 996.44-23.44 999.63-27.25 1005-27.25L1005-27.25Q1010.03-27.25 1012.96-23.94 1015.89-20.63 1015.89-15.21L1015.89-15.21 1015.89-12.65 997.46-12.65Q997.58-7.93 999.84-5.49 1002.1-3.05 1006.2-3.05L1006.2-3.05Q1010.52-3.05 1014.74-4.86L1014.74-4.86 1014.74-1.25Q1012.59-0.32 1010.68 0.09 1008.76 0.49 1006.05 0.49ZM1004.95-23.85L1004.95-23.85Q1001.73-23.85 999.81-21.75 997.9-19.65 997.55-15.94L997.55-15.94 1011.54-15.94Q1011.54-19.78 1009.83-21.81 1008.13-23.85 1004.95-23.85ZM1042.59-7.3L1042.59-7.3Q1042.59-3.56 1039.8-1.54 1037.02 0.49 1031.99 0.49L1031.99 0.49Q1026.67 0.49 1023.69-1.2L1023.69-1.2 1023.69-4.96Q1025.62-3.98 1027.83-3.42 1030.04-2.86 1032.09-2.86L1032.09-2.86Q1035.26-2.86 1036.97-3.87 1038.68-4.88 1038.68-6.96L1038.68-6.96Q1038.68-8.52 1037.33-9.63 1035.97-10.74 1032.04-12.26L1032.04-12.26Q1028.3-13.65 1026.73-14.69 1025.16-15.72 1024.39-17.04 1023.62-18.36 1023.62-20.19L1023.62-20.19Q1023.62-23.46 1026.28-25.35 1028.94-27.25 1033.58-27.25L1033.58-27.25Q1037.9-27.25 1042.03-25.49L1042.03-25.49 1040.58-22.19Q1036.56-23.85 1033.29-23.85L1033.29-23.85Q1030.4-23.85 1028.94-22.95 1027.47-22.05 1027.47-20.46L1027.47-20.46Q1027.47-19.38 1028.02-18.63 1028.57-17.87 1029.79-17.19 1031.01-16.5 1034.48-15.21L1034.48-15.21Q1039.24-13.48 1040.91-11.72 1042.59-9.96 1042.59-7.3Z" opacity="1" transform="matrix(1,0,0,1,0,0)" fill="#adbfb8" class="undefined-text-1" data-fill-palette-color="secondary" id="text-1"></path></svg></g></svg></g></svg></g></svg></g><g transform="matrix(1,0,0,1,127.12347251710963,0)"><svg viewBox="0 0 141.27305496578072 141.27305496578072" height="141.27305496578072" width="141.27305496578072"><g><svg></svg></g><g id="icon-0"><svg viewBox="0 0 141.27305496578072 141.27305496578072" height="141.27305496578072" width="141.27305496578072"><g><path d="M0 70.637c0-39.011 31.625-70.637 70.637-70.637 39.011 0 70.637 31.625 70.636 70.637 0 39.011-31.625 70.637-70.636 70.636-39.011 0-70.637-31.625-70.637-70.636zM70.637 138.49c37.475 0 67.854-30.379 67.853-67.853 0-37.475-30.379-67.854-67.853-67.854-37.475 0-67.854 30.379-67.854 67.854 0 37.475 30.379 67.854 67.854 67.853z" data-fill-palette-color="accent" fill="#c9efc7" stroke="transparent"></path></g><g transform="matrix(1,0,0,1,27.9522987745031,44.98562006619677)"><svg viewBox="0 0 85.36845741677452 51.30181483338717" height="51.30181483338717" width="85.36845741677452"><g><svg xmlns="http://www.w3.org/2000/svg" xmlns:xlink="http://www.w3.org/1999/xlink" version="1.1" x="0" y="0" viewBox="0.499898761510849 24.500497817993164 98.83338928222656 59.39350891113281" enable-background="new 0 0 100 100" xml:space="preserve" height="51.30181483338717" width="85.36845741677452" class="icon-s-0" data-fill-palette-color="accent" id="s-0"><path d="M99.284 53.229L90 27.704c-0.104-0.399-0.369-0.738-0.73-0.936-0.362-0.198-0.791-0.237-1.183-0.111l-17.101 6.717c-2.899-1.623-13.879-7.679-17.322-8.252-0.569-0.095-1.18-0.143-1.814-0.143-2.993 0-5.866 1.06-6.628 1.363-1.768 0.208-11.123 1.425-17.421 4.574-5.487-2.828-9.85-6.082-9.895-6.115-0.332-0.248-0.752-0.351-1.158-0.277-0.408 0.071-0.768 0.308-0.995 0.653L0.747 47.983c-0.443 0.673-0.275 1.576 0.381 2.045l18.934 13.523c-0.654 1.523-0.688 3.053-0.079 4.438 1.046 2.381 3.656 3.726 5.039 4.293 1.061 4.283 3.776 4.951 5.363 4.951 0.532 0 1.03-0.074 1.464-0.176 1.515 3.354 3.603 4.107 5.172 4.106 0 0 0 0 0.001 0 0.807 0 1.527-0.204 2.1-0.448 0.935 1.046 2.598 2.436 5.017 2.738 0.253 0.032 0.492 0.046 0.715 0.046 1.465 0 2.37-0.62 2.871-1.141 0.683-0.71 0.971-1.587 1.091-2.255l3.341 2.343 0.09 0.058c0.294 0.177 2.397 1.39 4.634 1.39 0.67 0 1.353-0.108 2.001-0.388 0.782-0.336 1.75-1.027 2.38-2.45 1.275 0.065 3.223-0.069 4.866-1.211 1.248-0.866 2.098-2.126 2.534-3.753 1.269-0.11 3.175-0.52 4.672-1.887 1.113-1.017 1.807-2.357 2.071-3.999 1.336-0.02 3.221-0.317 4.658-1.613 1.373-1.237 2.017-3.054 1.937-5.39l16.505-8.253C99.139 54.634 99.464 53.915 99.284 53.229zM22.727 66.777c-0.29-0.663-0.244-1.355 0.145-2.178 0.937-1.983 2.057-3.168 2.997-3.168 0.564 0 1.247 0.414 1.976 1.176-1.148 1.428-2.618 3.688-3.012 6.229C23.967 68.323 23.098 67.627 22.727 66.777zM27.794 70.9l-0.001-0.009c-0.406-2.232 0.978-4.573 2.13-6.074l1.028-0.971c0.656-0.619 2.065-1.601 3.055-1.601 0.859 0 1.315 1.138 1.561 2.304-1.279 1.521-4.335 5.582-4.371 9.577-0.245 0.06-0.522 0.106-0.812 0.106C29.889 74.233 28.382 74.233 27.794 70.9zM37.021 78.164c-1.346 0.001-2.245-1.69-2.786-3.217l0.01-0.002c-0.542-2.979 2.458-7.148 3.86-8.747 0.235-0.105 0.713-0.282 1.273-0.282 0.902 0 1.688 0.502 2.354 1.473-0.644 0.329-1.235 0.808-1.756 1.432-1.745 2.092-2.546 5.694-2.1 9.156C37.616 78.079 37.323 78.164 37.021 78.164zM46 79.201c0 0.236-0.126 0.811-0.394 1.084-0.053 0.053-0.238 0.215-0.729 0.215-0.107 0-0.234-0.008-0.355-0.022-2.03-0.254-3.264-1.832-3.594-2.311-0.502-2.759 0.065-5.881 1.354-7.425 0.494-0.593 1.03-0.881 1.641-0.882 0.201 0.009 1.765 0.162 2.56 2.835l-0.525 6.328L46 79.121V79.201zM78.062 66.358c-0.86 0.78-2.26 0.889-3.15 0.844l-11.433-10.37c-0.612-0.554-1.562-0.51-2.119 0.104-0.557 0.613-0.51 1.563 0.104 2.119l11.03 10.006c-0.076 1.269-0.456 2.261-1.171 2.919-0.95 0.875-2.28 1.09-3.078 1.137L57.505 62.859c-0.6-0.571-1.548-0.55-2.121 0.049-0.572 0.6-0.55 1.549 0.049 2.121l10.396 9.93c-0.229 1.102-0.679 1.908-1.4 2.414-0.707 0.495-1.562 0.653-2.291 0.688-0.039-0.048-0.059-0.105-0.104-0.148l-9.352-8.872c-0.6-0.569-1.55-0.546-2.121 0.056-0.57 0.601-0.545 1.55 0.056 2.12l8.168 7.749-0.028 0.129c-0.295 1.326-0.867 1.574-1.056 1.655-1.17 0.51-3.195-0.404-3.871-0.793l-4.697-3.293 0.385-4.234-0.067-0.256c-0.887-3.354-2.908-4.74-4.482-5.162-1.709-3.541-4.2-4.095-5.59-4.095-0.397 0-0.771 0.042-1.11 0.107-0.996-3.242-3.03-3.777-4.263-3.777-1.47 0-2.89 0.751-3.865 1.422-1.376-1.485-2.809-2.236-4.271-2.236-1.584 0-3.037 0.872-4.29 2.518L4.046 48.426 17.4 28.128c1.846 1.286 5.476 3.685 9.738 5.815 0.439 0.22 0.958 0.211 1.389-0.025 3.252-1.774 7.764-2.949 11.365-3.672-0.918 0.847-1.964 1.867-3.164 3.119-4.901 5.116-2.766 8.218-2.454 8.619 1.205 1.398 2.855 2.137 4.772 2.136 4.205 0 8.849-3.568 10.189-4.676l3.631-0.403c2.471 8.528 12.086 12.189 14.149 12.883l11.749 11.748c0.068 0.068 0.155 0.103 0.232 0.154C78.958 64.965 78.652 65.821 78.062 66.358zM80.123 60.787l-11.24-11.239c-0.176-0.176-0.392-0.305-0.63-0.376-0.111-0.034-11.147-3.439-12.76-12.044-0.135-0.716-0.76-1.224-1.474-1.224-0.055 0-0.11 0.003-0.167 0.009l-5.402 0.6c-0.307 0.034-0.597 0.163-0.829 0.367-1.335 1.179-5.479 4.24-8.575 4.24-1.015 0-1.786-0.318-2.415-1-0.105-0.265-0.516-1.78 2.263-4.68 5.07-5.291 7.218-6.224 7.213-6.224 0.033-0.011 0.065-0.024 0.097-0.038 0.028-0.012 2.836-1.201 5.644-1.201 0.47 0 0.914 0.034 1.321 0.102 2.449 0.408 11.457 5.145 16.914 8.229 0.365 0.208 0.802 0.251 1.2 0.122L87.5 30l8.573 22.813L80.123 60.787z" fill="#c9efc7" data-fill-palette-color="accent"></path></svg></g></svg></g></svg></g></svg></g><g></g></svg></g><defs></defs></svg><rect width="395.52" height="213.05519936638154" fill="none" stroke="none" visibility="hidden"></rect></g></svg></g></svg>